<?xml version="1.0" encoding="UTF-8" standalone="no"?>
<svg width="200" height="200" viewBox="0 0 200 200" xmlns="http://www.w3.org/2000/svg">
  <rect width="200" height="200" rx="20" fill="#2563EB"/>
  <path d="M62,60 C75,55 87,60 95,70 C102,80 95,95 80,100 C95,100 110,110 110,125 C110,140 95,150 75,150 L60,150 L60,130 L75,130 C85,130 90,125 90,120 C90,115 85,110 75,110 L60,110 L60,90 L70,90 C80,90 85,85 85,80 C85,75 80,70 70,70 L60,70 L60,60 L62,60 Z" fill="white"/>
  <path d="M115,60 C130,60 150,65 150,90 L130,90 C130,80 125,75 115,75 C105,75 100,80 100,90 C100,100 105,105 115,105 L120,105 L120,120 L115,120 C105,120 100,125 100,135 C100,145 105,150 115,150 C125,150 130,145 130,135 L150,135 C150,160 130,165 115,165 C90,165 80,150 80,135 C80,120 90,115 105,110 C90,105 80,100 80,85 C80,70 90,60 115,60 Z" fill="white"/>
</svg> 